<svg xmlns="http://www.w3.org/2000/svg" width="64" height="96" shape-rendering="crispEdges"><rect x="24" y="4" width="16" height="4" fill="#b23a2e"/><rect x="24" y="8" width="16" height="16" fill="#e8b78a"/><rect x="28" y="24" width="8" height="4" fill="#e8b78a"/><rect x="16" y="32" width="4" height="16" fill="#e8b78a"/><rect x="44" y="32" width="4" height="16" fill="#e8b78a"/><rect x="20" y="28" width="24" height="24" fill="#c8ccd0"/><rect x="20" y="28" width="24" height="4" fill="#8b9096"/><rect x="20" y="48" width="24" height="4" fill="#5a3a22"/><rect x="24" y="52" width="8" height="20" fill="#8a2c22"/><rect x="32" y="52" width="8" height="20" fill="#8a2c22"/><rect x="24" y="72" width="8" height="8" fill="#3a2414"/><rect x="32" y="72" width="8" height="8" fill="#3a2414"/><rect x="48" y="12" width="4" height="40" fill="#e6e6e6"/><rect x="48" y="52" width="4" height="4" fill="#5a3a22"/><rect x="44" y="56" width="12" height="4" fill="#5a3a22"/></svg>